# xmcd
#
# Track frame offsets:
#	150
#	19388
#	34963
#	46126
#	62351
#	76394
#	88920
#	99069
#	113104
#	131307
#	143165
#	155845
#	167738
#	179059
#	192062
#	204444
#	221836
#	236572
#	246680
#
# Disc length: 3452 seconds
#
# Revision: 1
# Processed by: cddbd v1.5.2PL0 Copyright (c) Steve Scherf et al.
# Submitted via: audiograbber 1.83.01
#
DISCID=0e0d7a13
DTITLE=Skeeter Davis - Studio 102 Essentials
DYEAR=2008
DGENRE=Country
TTITLE0=Ain't Nobody
TTITLE1=Blue Kentucky Girl
TTITLE2=Crying Time
TTITLE3=Gonna Find Me A Bluebird
TTITLE4=Hopelessly Devoted To You
TTITLE5=How Could I Make You Love Me
TTITLE6=I Ain't Never
TTITLE7=I'm A Country Girl But (I Love To Rock N' Roll)
TTITLE8=Just When I Needed You Most
TTITLE9=Love Me So Good
TTITLE10=Love Me Tender
TTITLE11=Rock-A-Bye Boogie
TTITLE12=Rocky Top
TTITLE13=Somebody To Love
TTITLE14=Sweet Dreams
TTITLE15=Take It Easy
TTITLE16=That's Alright
TTITLE17=You Don't Have To Be A Baby To Cry
TTITLE18=The End Of The World
EXTD=
EXTT0=
EXTT1=
EXTT2=
EXTT3=
EXTT4=
EXTT5=
EXTT6=
EXTT7=
EXTT8=
EXTT9=
EXTT10=
EXTT11=
EXTT12=
EXTT13=
EXTT14=
EXTT15=
EXTT16=
EXTT17=
EXTT18=
PLAYORDER=
